<svg version="1.1" xmlns="http://www.w3.org/2000/svg" xmlns:xlink="http://www.w3.org/1999/xlink" style="" xml:space="preserve" width="284.0000035762787" height="489.63636350631725"><rect id="backgroundrect" width="100%" height="100%" x="0" y="0" fill="none" stroke="none" style="" class="selected"/>
















<g class="currentLayer" style=""><title>Layer 1</title><g id="svg_1" class="" transform="rotate(89.98, 141, 245)">
	<g id="XMLID_39_">
		<g id="svg_2">
			<rect x="-94" y="115" style="fill:#23A24D;" width="470" height="260" id="svg_3"/>
		</g>
		<g id="svg_4">
			<g id="svg_5">
				<path style="fill:#231F20;" d="M376,385 H-94 c-5.5229997634887695,0 -10,-4.4770002365112305 -10,-10 V115 c0,-5.5229997634887695 4.4770002365112305,-10 10,-10 h470 c5.5229997634887695,0 10,4.4770002365112305 10,10 v260 C386,380.52301025390625 381.52301025390625,385 376,385 zM-84,365 h450 V125 H-84 V365 z" id="svg_6"/>
			</g>
		</g>
	</g>
	<g id="svg_7">
		<g id="XMLID_37_">
			<g id="svg_8">
				<path style="fill:#84BE55;" d="M341,195 v100.69999694824219 c-24.5,0.20000000298023224 -44.20000076293945,19.899999618530273 -44.5,44.29999923706055 H-14 c-0.10000000149011612,-24.600000381469727 -20.100000381469727,-44.599998474121094 -44.79999923706055,-44.599998474121094 c-0.10000000149011612,0 -0.10000000149011612,0 -0.20000000298023224,0 V195 c0.10000000149011612,0 0.10000000149011612,0 0.20000000298023224,0 c24.700000762939453,0 44.79999923706055,-20.100000381469727 44.79999923706055,-44.79999923706055 c0,-0.10000000149011612 0,-0.10000000149011612 0,-0.20000000298023224 h310 c0,0.10000000149011612 0,0.10000000149011612 0,0.20000000298023224 c0,24.700000762939453 20.100000381469727,44.79999923706055 44.79999923706055,44.79999923706055 C340.8999938964844,195 340.8999938964844,195 341,195 z" id="svg_9"/>
			</g>
			<g id="svg_10">
				<g id="svg_11">
					<path style="fill:#231F20;" d="M296.5,350 H-14 c-5.506999969482422,0 -9.977999687194824,-4.452000141143799 -10,-9.958999633789062 C-24.0780029296875,320.9389953613281 -39.689002990722656,305.3999938964844 -58.79999923706055,305.3999938964844 H-59 c-5.5229997634887695,0 -10,-4.4770002365112305 -10,-10 V195 c0,-5.5229997634887695 4.4770002365112305,-10 10,-10 h0.20000000298023224 c19.187999725341797,0 34.79999923706055,-15.611000061035156 34.79999923706055,-34.79999923706055 V150 c0,-5.5229997634887695 4.4770002365112305,-10 10,-10 h310 c5.5229997634887695,0 10,4.4770002365112305 10,10 v0.20000000298023224 c0,19.187999725341797 15.611000061035156,34.79999923706055 34.79999923706055,34.79999923706055 h0.20000000298023224 c5.5229997634887695,0 10,4.4770002365112305 10,10 v100.69999694824219 c0,5.491000175476074 -4.427999973297119,9.954999923706055 -9.918000221252441,10 c-19.156999588012695,0.15600000321865082 -34.34700012207031,15.277000427246094 -34.58300018310547,34.42300033569336 C306.4320068359375,345.59698486328125 301.9750061035156,350 296.5,350 zM-4.952003479003906,330 h292.4580078125 c2.069000005722046,-10.673999786376953 7.263999938964844,-20.48699951171875 15.107999801635742,-28.30699920654297 c7.849999904632568,-7.824999809265137 17.690000534057617,-12.991000175476074 28.385000228881836,-15.022000312805176 v-82.5479965209961 c-22.378000259399414,-4.056000232696533 -40.066001892089844,-21.7450008392334 -44.12300109863281,-44.12300109863281 H-4.8769989013671875 C-8.933998107910156,182.3780059814453 -26.62200164794922,200.0659942626953 -49,204.1230010986328 v82.15799713134766 C-26.781997680664062,290.3179931640625 -9.149002075195312,307.8290100097656 -4.952003479003906,330 z" id="svg_12"/>
				</g>
			</g>
		</g>
	</g>
	<g id="svg_13">
		<rect x="326" y="325" style="fill:#231F20;" width="25" height="20" id="svg_14"/>
	</g>
	<g id="svg_15">
		<rect x="326" y="145" style="fill:#231F20;" width="25" height="20" id="svg_16"/>
	</g>
	<g id="svg_17">
		<rect x="-69" y="145" style="fill:#231F20;" width="25" height="20" id="svg_18"/>
	</g>
	<g id="svg_19">
		<rect x="-69" y="325" style="fill:#231F20;" width="25" height="20" id="svg_20"/>
	</g>
	<g id="XMLID_35_">
		<g id="svg_21">
			<path style="fill:#E7ECED;" d="M141,190 c30.399999618530273,0 55,24.600000381469727 55,55 s-24.600000381469727,55 -55,55 s-55,-24.600000381469727 -55,-55 S110.60000610351562,190 141,190 z" id="svg_22"/>
		</g>
		<g id="svg_23">
			<g id="svg_24">
				<path style="fill:#231F20;" d="M141,310 c-35.840999603271484,0 -65,-29.159000396728516 -65,-65 s29.159000396728516,-65 65,-65 s65,29.159000396728516 65,65 S176.84100341796875,310 141,310 zM141,200 c-24.812999725341797,0 -45,20.187000274658203 -45,45 s20.187000274658203,45 45,45 s45,-20.187000274658203 45,-45 S165.81298828125,200 141,200 z" id="svg_25"/>
			</g>
		</g>
	</g>
	<g id="svg_26">
		<rect x="226" y="235" style="fill:#231F20;" width="40" height="20" id="svg_27"/>
	</g>
	<g id="svg_28">
		<rect x="16" y="235" style="fill:#231F20;" width="40" height="20" id="svg_29"/>
	</g>
</g><g id="svg_30">
</g><g id="svg_31">
</g><g id="svg_32">
</g><g id="svg_33">
</g><g id="svg_34">
</g><g id="svg_35">
</g><g id="svg_36">
</g><g id="svg_37">
</g><g id="svg_38">
</g><g id="svg_39">
</g><g id="svg_40">
</g><g id="svg_41">
</g><g id="svg_42">
</g><g id="svg_43">
</g><g id="svg_44">
</g></g></svg>