<?xml version="1.0" encoding="iso-8859-1"?>
<!-- Generator: Adobe Illustrator 19.0.0, SVG Export Plug-In . SVG Version: 6.00 Build 0)  -->
<svg version="1.1" id="Capa_1" xmlns="http://www.w3.org/2000/svg" xmlns:xlink="http://www.w3.org/1999/xlink" x="0px" y="0px"
	 viewBox="0 0 511.999 511.999" style="enable-background:new 0 0 511.999 511.999;" xml:space="preserve">
<path d="M223.879,111.061c-3.925,0.001-7.225-3.051-7.478-7.022c-0.264-4.134,2.873-7.698,7.007-7.962
	c3.022-0.193,6.725-1.317,8.546-8.355c1.5-5.802,0.071-11.51-1.696-16.814c-1.365-4.097-3.752-8.751-6.278-13.678
	c-6.645-12.96-14.914-29.089-7.609-44.412c4.763-9.985,16.414-15.245,25.965-11.724c3.887,1.432,5.877,5.743,4.444,9.63
	c-1.432,3.887-5.743,5.878-9.63,4.444c-2.269-0.833-5.854,1.198-7.239,4.105c-4.112,8.626,1.749,20.057,7.417,31.112
	c2.672,5.21,5.435,10.598,7.161,15.779c2.376,7.13,4.471,15.713,1.987,25.313c-3.035,11.733-11.095,18.865-22.112,19.567
	C224.201,111.056,224.039,111.061,223.879,111.061z"/>
<path d="M274.779,111.061c-3.925,0.001-7.225-3.051-7.478-7.022c-0.264-4.134,2.873-7.698,7.007-7.962
	c3.022-0.193,6.725-1.317,8.546-8.355c1.5-5.802,0.071-11.51-1.696-16.814c-1.365-4.097-3.752-8.751-6.278-13.678
	c-6.645-12.96-14.914-29.089-7.609-44.412c4.763-9.985,16.413-15.245,25.965-11.724c3.887,1.432,5.877,5.743,4.444,9.63
	c-1.432,3.887-5.742,5.878-9.63,4.444c-2.267-0.833-5.854,1.198-7.239,4.105c-4.112,8.626,1.749,20.057,7.417,31.112
	c2.672,5.21,5.435,10.598,7.161,15.779c2.376,7.13,4.471,15.713,1.987,25.313c-3.035,11.733-11.095,18.865-22.112,19.567
	C275.102,111.056,274.939,111.061,274.779,111.061z"/>
<path style="fill:#DB8137;" d="M424.409,391.582L424.409,391.582c-3.22,0-4.892-3.898-2.622-6.182
	c10.141-10.203,16.411-24.254,16.411-39.776l0,0c0-31.181-25.277-56.458-56.458-56.458h-2.399c-3.019,0-4.744-3.468-2.897-5.856
	c7.379-9.54,11.775-21.503,11.775-34.497l0,0c0-28.903-21.721-52.725-49.729-56.052c-1.893-0.225-3.314-1.833-3.257-3.739
	c0.011-0.362,0.018-0.623,0.021-0.751c0.386-18.074-1.339-41.179-11.734-57.555c-1.778-2.8-5.738-3.046-7.955-0.579
	c-3.467,3.858-9.377,7.28-12.214,8.871c-7.186,4.029-15.573,4.958-23.649,5.532c-8.578,0.61-17.627,3.161-24.938,7.767
	c-11.365,7.16-19.298,18.423-23.532,31.053c-0.122,0.363-0.749,2.988-1.449,6.138c-0.371,1.668-1.852,2.856-3.561,2.856H180.24
	c-31.181,0-56.458,25.277-56.458,56.458l0,0c0,12.994,4.395,24.958,11.775,34.497c1.848,2.388,0.123,5.856-2.897,5.856h-2.399
	c-31.181,0-56.458,25.277-56.458,56.458l0,0c0,15.522,6.271,29.573,16.411,39.776c2.27,2.284,0.598,6.182-2.622,6.182l0,0
	c-31.052,0-56.458,25.406-56.458,56.458l0,0c0,31.052,25.406,56.458,56.458,56.458H424.41c31.052,0,56.458-25.406,56.458-56.458l0,0
	C480.867,416.988,455.461,391.582,424.409,391.582z"/>
<path style="fill:#D86C1A;" d="M480.87,448.043c0,31.05-25.41,56.46-56.46,56.46h-17.88c14.99-10.18,24.88-27.35,24.88-46.73
	c0-15.53-6.35-29.64-16.59-39.88c-10.23-10.23-24.34-16.58-39.87-16.58c-3.22,0-4.89-3.9-2.62-6.18
	c10.14-10.21,16.41-24.26,16.41-39.78c0-15.59-6.32-29.7-16.54-39.92c-10.22-10.22-24.33-16.54-39.92-16.54h-2.4
	c-3.02,0-4.74-3.47-2.9-5.86c7.38-9.53,11.78-21.5,11.78-34.49c0-14.45-5.43-27.64-14.36-37.62c-8.93-9.99-21.36-16.77-35.37-18.43
	c-1.89-0.23-3.32-1.84-3.26-3.74c0.01-0.37,0.02-0.63,0.02-0.75c0.36-16.51-1.06-37.21-9.22-53.15c1.05-0.13,2.09-0.24,3.13-0.31
	c8.08-0.58,16.47-1.51,23.65-5.54c2.84-1.59,8.75-5.01,12.22-8.87c2.21-2.46,6.17-2.22,7.95,0.58
	c10.39,16.38,12.12,39.48,11.73,57.56c0,0.13-0.01,0.39-0.02,0.75c-0.05,1.9,1.37,3.51,3.26,3.74c14.01,1.67,26.44,8.45,35.37,18.44
	c8.93,9.98,14.36,23.16,14.36,37.61c0,12.99-4.4,24.96-11.78,34.5c-1.84,2.39-0.12,5.85,2.9,5.85h2.4c15.59,0,29.7,6.32,39.92,16.54
	c10.22,10.21,16.54,24.33,16.54,39.92c0,15.52-6.27,29.57-16.41,39.78c-2.27,2.28-0.6,6.18,2.62,6.18
	c15.53,0,29.64,6.35,39.87,16.59C474.52,418.403,480.87,432.513,480.87,448.043z"/>
<path d="M87.591,511.999c-35.268,0-63.959-28.691-63.959-63.958c0-32.542,24.427-59.485,55.909-63.455
	c-8.586-11.125-13.239-24.693-13.239-38.961c0-33.652,26.126-61.318,59.16-63.781c-6.026-9.933-9.181-21.219-9.181-33.031
	c0-18.043,7.679-35.336,21.067-47.446c3.073-2.777,7.815-2.54,10.594,0.531c2.778,3.072,2.54,7.814-0.531,10.594
	c-10.251,9.271-16.13,22.51-16.13,36.321c0,10.934,3.529,21.276,10.207,29.908c2.614,3.38,3.067,7.864,1.184,11.704
	c-1.889,3.85-5.726,6.241-10.013,6.241h-2.398c-26.996,0-48.959,21.963-48.959,48.959c0,13.007,5.054,25.255,14.23,34.488
	c3.166,3.185,4.095,7.929,2.366,12.085c-1.74,4.182-5.785,6.884-10.308,6.884c-26.996,0-48.959,21.963-48.959,48.959
	c0,26.995,21.963,48.958,48.959,48.958c4.143,0,7.5,3.357,7.5,7.5S91.734,511.999,87.591,511.999z"/>
<path d="M424.409,511.999H140.501c-4.143,0-7.5-3.357-7.5-7.5s3.357-7.5,7.5-7.5h283.907c26.996,0,48.959-21.963,48.959-48.958
	c0-26.996-21.963-48.959-48.959-48.959c-4.521,0-8.566-2.701-10.307-6.883c-1.729-4.155-0.801-8.899,2.364-12.085
	c9.178-9.234,14.231-21.482,14.231-34.489c0-26.996-21.963-48.959-48.958-48.959h-2.399c-4.287,0-8.124-2.392-10.013-6.241
	c-1.884-3.84-1.431-8.324,1.184-11.704c6.678-8.631,10.207-18.973,10.207-29.908c0-24.789-18.535-45.685-43.113-48.604
	c-5.802-0.688-10.045-5.595-9.869-11.413l0.019-0.639c0.468-21.863-2.543-38.874-8.953-50.674
	c-3.772,3.402-8.392,6.165-11.782,8.066c-8.606,4.826-18.339,5.871-26.785,6.472c-7.955,0.565-15.581,2.921-21.473,6.632
	c-9.229,5.815-16.458,15.38-20.368,26.943c-0.143,0.546-0.633,2.581-1.288,5.529c-1.144,5.141-5.618,8.729-10.882,8.729h-33.722
	c-4.143,0-7.5-3.357-7.5-7.5s3.357-7.5,7.5-7.5h30.644c0.386-1.667,0.779-3.291,0.979-3.884
	c4.993-14.896,14.455-27.331,26.643-35.01c7.943-5.003,18.03-8.165,28.403-8.903c7.141-0.508,14.606-1.28,20.514-4.593
	c4.957-2.779,8.424-5.25,10.304-7.342c2.662-2.962,6.462-4.474,10.416-4.141c3.908,0.326,7.352,2.409,9.45,5.715
	c8.825,13.904,13.175,33.783,12.939,59.115c30.408,5.276,52.926,31.773,52.926,63c0,11.813-3.154,23.1-9.181,33.031
	c33.034,2.463,59.16,30.129,59.16,63.781c0,14.268-4.653,27.836-13.239,38.961c31.482,3.97,55.909,30.913,55.909,63.455
	C488.368,483.308,459.676,511.999,424.409,511.999z M238.359,185.699c-0.005,0.015-0.01,0.029-0.015,0.044
	C238.348,185.73,238.353,185.716,238.359,185.699z"/>
<g>
</g>
<g>
</g>
<g>
</g>
<g>
</g>
<g>
</g>
<g>
</g>
<g>
</g>
<g>
</g>
<g>
</g>
<g>
</g>
<g>
</g>
<g>
</g>
<g>
</g>
<g>
</g>
<g>
</g>
</svg>
